<svg width="68" height="73" viewBox="0 0 68 73" fill="none" xmlns="http://www.w3.org/2000/svg">
<path d="M47.2431 52.1356C46.3054 53.1432 45.4459 54.2282 44.5864 55.2358C44.1957 55.6234 43.2581 55.7784 42.5548 55.2358C42.633 55.1583 42.7111 55.0033 42.7892 55.0808C44.0394 55.3134 44.8208 54.3833 45.2115 53.5307C45.6022 52.8331 45.8366 52.2906 46.5398 51.903C46.7742 51.748 46.9305 51.3605 47.1649 51.0505C46.7742 51.0505 46.4617 51.0505 46.1491 51.128C45.8366 51.2055 45.4459 51.283 45.1334 51.128C44.9771 51.0505 44.6645 50.9729 44.6645 50.7404C44.7427 50.4304 45.0552 50.5854 45.2115 50.5854C47.0086 50.6629 48.337 49.9654 49.0402 48.2602C49.1184 47.9502 49.4309 47.8727 49.5872 47.4851C48.1026 47.7176 46.618 48.1827 45.2115 47.3301C46.4617 47.2526 47.7119 47.2526 48.9621 46.8651C49.7435 46.6325 50.3686 46.4 50.8374 45.5474C51.6187 44.0748 52.5564 42.6797 53.494 41.207C52.7127 41.1295 52.4783 41.6721 52.322 42.0596C52.0876 42.5247 51.775 42.9122 51.4625 43.2997C51.3062 43.5323 50.7592 43.6098 51.0718 44.1523C51.0718 44.2298 50.8374 44.3848 50.6811 44.4623C48.7277 45.2374 46.7742 46.09 44.5083 45.625C44.2738 45.5474 44.0394 45.625 44.0394 45.3149C44.1176 45.0049 44.352 45.2374 44.5864 45.2374C46.1491 45.3149 47.6337 45.0824 48.9621 44.3848C49.6653 43.9973 49.8997 42.9897 50.2904 42.0596C49.6653 42.0596 49.1184 42.0596 48.5714 42.0596C48.4151 42.0596 48.2588 41.9821 48.2588 41.8271C48.2588 41.6721 48.4151 41.7496 48.5714 41.7496C49.1965 41.6721 49.8216 41.5171 50.4467 41.3621C50.7592 41.2845 50.9155 41.052 51.0718 40.742C51.3843 39.8894 51.775 39.1144 52.1657 38.3393C52.2438 38.1068 52.4001 38.0293 52.6345 37.8742C52.7127 39.1144 51.8532 39.9669 51.5406 41.207C52.2438 40.742 52.8689 40.742 53.494 40.5095C54.1973 40.277 53.9629 39.2694 54.7442 39.1144C54.9005 39.5019 54.4317 39.7344 54.5098 40.0444C55.6819 39.9669 55.6819 39.9669 55.76 38.8043C55.9163 37.4092 56.9321 36.1691 58.1823 35.8591C58.2604 35.8591 58.2604 35.8591 58.3385 35.8591C58.6511 35.704 58.8074 35.239 59.3543 35.549C59.9013 35.8591 60.292 36.2466 60.3701 36.9442C60.4482 37.2542 60.5264 37.4092 60.6827 37.6417C61.8547 38.8818 61.8547 39.1144 60.8389 40.3545C60.6045 40.6645 60.6827 40.8195 60.8389 41.052C62.0891 42.3697 62.2454 43.9198 61.6203 45.5474C60.9952 47.2526 59.1981 48.5702 57.2446 46.7876C56.8539 48.6477 56.4633 50.4304 56.0726 52.2906C55.6037 54.7708 55.0568 57.251 54.6661 59.8088C54.6661 59.9638 54.5098 60.1963 54.5098 60.3513C54.9005 62.444 53.1815 62.8315 51.8532 63.3741C50.6811 63.9166 49.3528 64.1492 48.1026 64.4592C46.6961 64.6917 45.2896 64.7692 43.8832 65.0017C42.7111 65.1568 41.539 65.1568 40.2889 65.1568C37.0852 65.2343 33.9597 64.7692 30.8342 64.0717C29.7403 63.8391 28.5683 63.7616 27.6306 63.0641C27.0055 62.599 26.4586 61.979 25.5209 61.9015C25.2084 61.9015 25.2865 61.5139 25.2865 61.2814C25.2084 60.5063 25.4428 59.8088 25.4428 59.0337C25.4428 56.941 25.2084 54.8483 25.1302 52.7556C25.0521 50.7404 24.8177 48.7252 24.8177 46.7101C24.8177 45.625 24.5051 44.5399 24.5051 43.4548C24.5051 43.2997 24.3489 43.0672 24.2707 42.8347C23.88 43.6098 23.4112 44.1523 23.4112 44.9274C23.4112 45.3924 23.0987 45.78 22.8642 46.1675C21.8485 48.0277 21.4578 50.0429 21.3015 52.1356C21.2234 53.5307 21.1452 55.0033 21.1452 56.3984C21.1452 58.6462 21.3015 60.9714 21.3015 63.2191C21.3015 64.2267 21.3015 65.2343 21.3015 66.2419C21.3015 66.3969 21.3015 66.6294 21.2234 66.7844C21.1452 66.8619 21.1452 67.0944 20.989 67.0169C20.9108 67.0169 20.7545 66.8619 20.7545 66.7844C20.6764 66.4744 20.7545 66.1643 20.6764 65.8543C20.6764 63.6841 20.6764 61.4364 20.5983 59.2662C20.5201 57.3285 20.6764 55.3909 20.5983 53.5307C20.5201 51.903 20.989 50.3529 21.3796 48.8027C21.7703 47.4851 22.3173 46.245 22.6298 44.9274C22.8642 44.0748 23.5675 43.6098 23.8019 42.7572C24.1926 41.3621 24.7395 40.0444 25.2084 38.7268C25.2084 38.6493 25.2084 38.4943 25.2084 38.1843C24.5833 39.8119 24.0363 41.1295 22.7861 42.1371C22.5517 42.3697 22.2392 42.4472 21.9266 42.4472C20.8327 42.4472 19.8169 42.6022 18.8011 41.9046C18.3323 41.5946 17.9416 41.1295 17.5509 40.587C17.5509 40.897 17.4728 41.1295 17.5509 41.207C18.176 42.2921 18.2542 43.6098 18.4886 44.7724C19.0355 47.4076 19.895 50.0429 19.7388 52.8331C19.6606 55.0033 19.6606 57.1735 19.5825 59.3437C19.5043 61.2814 19.3481 63.2191 19.1918 65.2343C19.1918 65.3118 19.1918 65.3118 19.1918 65.3893C19.4262 67.327 18.4886 68.5671 16.5351 68.7221C15.5975 68.7996 14.8943 69.1871 14.2692 69.8847C13.7222 70.5823 13.8003 70.8148 14.5036 71.3573C15.4412 72.1324 16.5351 72.1324 17.7072 72.1324C18.6448 72.1324 19.6606 72.2874 20.5983 72.0549C21.6141 71.7449 22.7861 71.9774 23.7238 71.2798C24.3489 70.8148 24.427 70.4272 24.0363 69.8072C23.3331 68.7996 22.708 67.7145 21.2234 67.5595C22.3954 67.0944 23.1768 67.4045 24.0363 68.4896C24.427 68.9546 24.7395 69.4197 25.1302 69.9622C25.4428 70.4272 25.2084 70.8148 24.974 71.1248C24.2707 71.9774 23.3331 72.3649 22.3173 72.5199C20.3639 72.83 18.4104 73.0625 16.3789 72.985C15.2068 72.9075 14.191 72.3649 13.3315 71.5899C13.0971 71.3573 12.8627 70.8923 13.0971 70.5823C13.8003 69.4197 14.6598 68.257 16.2226 68.1795C17.1602 68.102 18.0197 67.8695 18.4886 66.9394C18.6448 66.7069 18.8011 66.4744 18.723 66.2419C18.4886 64.6142 18.8793 62.9091 19.0355 61.2814C19.1137 60.6613 19.1918 60.0413 19.1918 59.3437C19.1918 56.631 19.3481 53.9957 19.2699 51.283C19.2699 49.8103 18.8011 48.3377 18.2542 46.9426C18.0979 46.555 17.7853 46.1675 18.176 45.7025C18.3323 45.5474 17.9416 45.1599 17.8635 44.8499C17.3165 43.1447 17.0821 41.4396 16.7695 39.6569C16.5351 38.1068 16.457 36.4791 16.2226 34.8515C15.9882 32.7588 15.7538 30.7436 15.91 28.6509C15.91 27.7983 15.4412 27.0232 15.6756 26.1707C15.9882 25.0856 15.4412 24.0005 15.8319 22.9154C15.91 22.6828 15.91 22.3728 16.0663 22.2178C16.1444 22.0628 16.3007 21.8303 16.5351 21.9078C16.7695 22.0628 16.8477 22.2178 16.6914 22.5278C16.0663 23.7679 16.3789 25.0081 16.3789 26.3257C17.3946 25.6281 18.4104 25.3181 19.5043 25.1631C20.5983 25.0081 21.6922 24.9305 22.7861 24.7755C24.1926 24.698 25.2084 25.0856 25.9897 26.3257C25.8335 25.1631 26.4586 24.0005 26.0679 22.8379C25.9897 22.5278 25.9116 22.3728 25.599 22.4503C24.0363 22.7603 22.3954 22.9154 20.8327 22.9929C19.5825 23.0704 18.4104 22.6828 17.3165 22.2953C16.8477 22.1403 16.5351 21.5977 16.6133 21.0552C16.6914 20.5126 17.1602 20.1251 17.6291 19.9701C17.9416 19.8926 18.2542 19.8151 18.6448 19.8926C19.895 20.0476 21.1452 19.5826 22.3954 19.8151C23.88 20.0476 25.5209 20.0476 26.7711 21.0552C26.9274 21.2102 27.3181 21.3652 27.0055 21.5977C26.4586 22.0628 26.7711 22.6053 26.7711 23.1479C26.7711 24.853 26.7711 26.5582 26.8492 28.4184C27.4743 28.1858 27.7088 27.7208 28.1776 27.6433C28.412 27.5658 28.412 27.2558 28.412 27.0232C28.4901 25.2406 29.0371 24.9305 30.7561 25.5506C31.2249 25.7831 31.85 25.4731 32.3189 25.7831C32.3189 25.7831 32.5533 25.7056 32.5533 25.6281C32.7877 24.9305 33.6472 24.853 34.116 24.388C34.2723 24.233 34.4286 24.3105 34.5848 24.388C35.4443 24.6205 36.2257 24.853 37.0852 25.0856C37.3196 25.1631 37.554 25.3956 37.6322 25.7056C37.7885 25.2406 37.7885 24.7755 37.9447 24.388C38.101 23.7679 38.4917 23.2254 39.3512 23.3029C39.82 23.3804 40.2889 23.3029 40.6795 23.3029C40.7577 23.3029 40.9139 23.3804 40.9139 23.3804C41.2265 22.3728 42.0079 22.9929 42.5548 22.9929C42.9455 22.9929 43.1018 22.6053 43.4925 22.6053C43.4925 22.7603 43.2581 22.8379 43.4143 22.9154C43.9613 23.1479 44.0394 23.6904 44.1176 24.0005C44.6645 23.4579 45.2115 22.9929 45.7585 22.4503C44.9771 22.0628 44.1957 22.2178 43.4143 22.6053C43.4925 22.2178 43.1799 22.2953 42.9455 22.2953C39.5856 22.2953 36.1476 22.2953 32.8658 23.1479C31.2249 23.5354 29.6622 23.923 28.2557 24.698C27.9432 24.853 27.5525 25.0081 27.3962 24.6205C27.1618 24.233 27.6306 24.078 27.865 23.923C29.3496 23.1479 30.9905 22.7603 32.6314 22.5278C33.4128 22.4503 34.1941 22.2178 34.9755 22.0628C35.6006 21.9078 36.3038 21.9078 36.9289 21.9078C38.648 21.8303 40.4451 21.7528 42.1641 21.7528C42.3204 21.7528 42.5548 21.7528 42.7111 21.7528C43.2581 21.8303 43.805 22.2178 44.0394 21.3652C44.1176 21.0552 44.6645 20.9777 44.9771 21.1327C45.3678 21.2877 45.9147 21.4427 45.9929 21.9853C45.9929 22.0628 45.9929 22.1403 46.071 22.3728C47.3993 21.2877 48.5714 20.2026 49.8216 19.2725C51.6969 17.8774 53.0252 16.0172 54.1973 14.2346C55.6037 12.1419 57.1665 10.2042 58.2604 7.87897C58.3385 7.72396 58.4167 7.64645 58.3385 7.49144C57.7134 6.25132 58.3385 5.16622 58.8855 4.08112C59.1199 3.53857 59.5106 3.07353 59.745 2.53098C60.4483 1.05834 61.6203 0.360778 63.183 0.0507493C64.277 -0.181772 65.0583 0.438285 65.9179 0.825821C67.7931 1.52339 68.4964 2.84101 67.6369 5.16622C67.0118 6.71636 66.3085 8.189 65.2928 9.50662C64.9021 10.0492 64.4332 10.4367 63.73 10.7467C62.8705 11.1343 62.3235 12.0644 61.8547 12.9169C60.3701 15.3972 59.3543 18.0324 58.573 20.8227C58.3386 21.5977 58.2604 22.3728 58.026 23.1479C57.8697 23.5354 57.9479 23.923 58.6511 24.0005C59.5106 24.078 60.292 25.2406 60.4482 26.0932C60.8389 28.1083 60.2138 30.046 59.9013 31.9837C59.8232 32.5262 59.9013 33.0688 59.6669 33.6113C59.5887 33.8439 59.6669 34.2314 59.2762 34.2314C58.9636 34.2314 58.7292 33.9214 58.8074 33.5338C58.9636 32.7588 58.8074 31.9062 59.1199 31.1311C59.3543 30.5111 59.3543 29.891 59.3543 29.2709C58.4167 29.581 57.4009 29.9685 56.4633 30.2785C54.588 30.8986 52.5564 30.9761 50.603 31.0536C48.8839 31.0536 47.0868 31.0536 45.3678 31.1311C42.7111 31.2086 40.1326 30.8986 37.4759 31.0536C35.3662 31.2086 33.3346 30.8986 31.2249 30.4336C30.3654 30.2785 29.6622 29.736 28.8027 29.581C28.2557 29.5035 27.7088 29.581 27.1618 29.1934C26.8492 28.9609 26.7711 29.5035 26.7711 29.736C26.7711 30.8986 26.5367 31.9837 26.4586 33.0688C26.3023 35.704 25.9116 38.3393 25.0521 40.8195C24.8177 41.4396 25.0521 41.9046 25.0521 42.4472C25.1302 43.5323 25.2084 44.6174 25.2865 45.78C25.2865 48.2602 25.5209 50.6629 25.8335 53.0656C25.8335 53.3757 25.8335 53.6082 25.8335 53.9182C25.9116 56.1659 25.9897 58.4136 26.0679 60.6613C26.0679 61.1264 26.3023 61.4364 26.693 61.5139C27.3181 61.6689 27.7088 62.134 28.1776 62.5215C28.8027 63.1416 29.6622 63.4516 30.4436 63.5291C31.6156 63.7616 32.7877 64.0717 33.9597 64.2267C34.663 64.3042 35.4443 64.2267 36.1476 64.4592C37.7103 64.8467 39.2731 64.6142 40.8358 64.6917C42.633 64.8467 44.352 64.3042 46.071 64.2267C47.6338 64.1492 49.1184 63.6841 50.603 63.3741C51.5406 63.2191 52.322 62.599 53.1815 62.2115C53.2596 62.134 53.4159 62.0565 53.4159 61.9015C53.8847 59.9638 54.5098 58.1036 54.588 56.0884C55.0568 54.5383 55.2912 52.9881 55.6037 51.438C55.6819 51.128 55.6819 50.7404 55.76 50.4304C55.9163 50.0429 56.3851 49.7328 55.6819 49.4228C55.6819 49.4228 55.6819 49.3453 55.6819 49.2678C56.6195 48.4152 56.3851 47.1751 56.3851 46.1675C56.4633 45.0049 56.5414 43.9198 56.9321 42.8347C57.0102 42.6797 57.0102 42.5247 56.6977 42.4472C55.9944 42.3697 55.6037 41.8271 55.4475 41.207C55.2912 40.8195 55.1349 40.8195 54.7442 40.897C53.7285 41.1295 53.4159 41.9046 53.0252 42.7572C52.4001 43.9973 51.6187 45.1599 50.8374 46.4C51.6187 46.7876 52.2438 46.09 52.8689 46.09C52.322 46.6325 51.5406 47.0201 50.8374 47.2526C50.2904 47.4076 49.9779 47.7176 49.6653 48.1827C49.2746 48.8027 48.8058 49.4228 48.4151 50.1204C49.2746 50.2754 49.8216 49.7328 50.4467 49.5778C52.322 49.0353 52.7908 47.2526 53.5722 45.8575C54.041 45.0049 54.588 44.1523 54.8224 43.1447C54.9005 42.9122 55.0568 42.9122 55.2912 42.8347C55.2131 43.7648 54.7442 44.5399 54.4317 45.3149C54.041 46.245 53.2596 47.0201 53.1034 47.8727C52.7908 49.1903 51.3843 49.8103 51.2281 51.128C51.6969 51.283 52.1657 50.9729 52.322 50.5854C52.5564 50.1204 52.8689 49.7328 53.2596 49.2678C53.4159 49.7328 53.0252 50.1204 53.1034 50.5079C53.6503 50.4304 53.494 49.8879 53.7285 49.6553C53.8066 49.5778 53.8847 49.2678 54.1191 49.4228C54.3535 49.5778 54.041 49.6553 54.041 49.8103C53.8847 50.2754 53.494 50.5854 53.1815 50.8954C53.1034 50.9729 53.0252 51.0505 53.0252 51.128C52.322 51.2055 52.4001 52.0581 52.0094 52.3681C51.775 52.5231 51.6187 52.8331 51.3843 53.0656C51.4625 52.6781 51.5406 52.3681 51.6187 51.9805C50.4467 51.9805 50.3686 52.5231 49.1965 54.4608C50.2904 54.3058 51.2281 53.9957 51.9313 53.2207C52.0094 54.1507 52.0094 54.1507 51.1499 54.3833C50.4467 54.6158 49.7435 54.8483 49.0402 55.1583C48.8058 55.2358 48.6495 55.3909 48.4933 55.5459C48.1807 55.7784 47.7119 56.2434 47.8682 56.476C48.1026 56.786 48.4933 56.3209 48.8839 56.2434C49.3528 56.1659 49.8216 56.1659 50.1341 55.7009C50.2904 55.4684 50.5248 55.5459 50.7592 55.6234C50.603 56.1659 50.1341 56.5535 49.8997 57.0185C49.8216 57.096 49.7435 57.1735 49.6653 57.096C49.0402 56.786 47.3212 57.096 46.7742 57.7161C46.2273 58.3361 45.6803 58.9562 45.1334 59.5762C45.8366 59.7313 45.8366 58.8787 46.4617 58.8787C45.8366 59.7313 45.2896 60.5063 44.4301 61.0489C44.2738 61.1264 44.0394 61.3589 43.9613 61.2039C43.4925 60.5838 43.0237 61.1264 42.5548 61.2039C41.539 61.2814 40.6014 61.1264 39.6638 60.6613C40.367 60.5063 41.2265 60.8164 41.8516 60.3513C41.9297 60.4288 42.0079 60.5063 42.0079 60.5063C42.1641 60.7389 42.3986 60.6613 42.633 60.5838C43.7269 59.8088 44.8989 59.0337 45.8366 57.7936C45.0552 57.8711 44.4301 57.9486 43.7269 58.1036C43.4925 58.1811 43.2581 58.2586 43.0237 58.0261C42.9455 57.9486 42.8674 57.8711 42.9455 57.7161C43.1018 57.4835 43.3362 57.4836 43.5706 57.4836C44.352 57.3285 45.2115 57.5611 45.9147 57.1735C46.3836 56.941 46.7742 56.786 47.0087 56.3209C47.0868 56.0884 47.4775 56.0884 47.3212 55.7784C47.1649 55.4684 46.8524 55.4684 46.4617 55.4684C48.0244 55.2358 48.8058 54.2282 49.4309 52.9106C48.9621 52.7556 48.5714 52.9881 48.1807 53.1432C47.79 52.6781 47.3212 52.7556 47.2431 52.1356C47.8682 51.9805 48.5714 51.903 49.1965 51.6705C50.1341 51.3605 50.8374 50.6629 51.1499 49.7328C50.2904 49.9654 49.5872 50.2754 48.8058 50.5079C47.8682 50.7404 47.4775 51.3605 47.2431 52.1356ZM16.6133 27.1783C16.3789 28.4959 16.457 29.891 16.6914 31.2861C16.9258 33.3013 17.004 35.3165 17.4728 37.2542C17.7853 38.3393 17.9416 39.5019 18.6448 40.432C19.895 42.0596 22.5517 41.9046 23.6456 40.1219C23.9582 39.6569 24.1926 39.1919 24.3489 38.6493C25.5991 35.1615 26.0679 31.5187 25.9897 27.7983C22.7861 28.9609 19.7388 28.5734 16.6133 27.1783ZM46.6961 22.2178C46.4617 22.4503 46.2273 22.6053 46.071 22.7603C45.2115 23.7679 44.352 24.698 43.4925 25.7056C43.4143 25.8606 43.2581 25.9381 43.1018 25.9381C42.9455 25.8606 42.9455 25.7056 43.0237 25.6281C43.5706 25.0081 43.4925 24.4655 42.7111 24.0005C42.633 23.923 42.5548 23.8454 42.5548 23.7679C42.4767 23.2254 42.1641 23.2254 41.6953 23.3804C41.9297 23.8454 42.086 24.3105 42.0079 24.853C41.9297 25.6281 41.6953 26.3257 41.2265 26.9457C41.0702 27.1783 40.8358 27.4108 40.5233 27.1783C40.2107 26.9457 40.5233 26.7907 40.6795 26.6357C40.8358 26.3257 41.0702 26.0156 41.1484 25.7056C41.4609 24.6205 41.1484 23.923 40.4451 23.6129C40.1326 23.5354 39.9763 23.6904 39.6638 23.6904C38.8042 23.6904 38.4917 24.1555 38.3354 25.3956C38.2573 26.0932 38.8824 25.9381 39.2731 26.0156C39.4293 26.0156 39.5856 26.1707 39.6638 26.2482C39.9763 26.4032 40.6014 28.2633 40.5233 28.5734C40.4451 28.8834 40.2888 28.8834 40.0544 28.6509C39.7419 28.3409 39.7419 27.8758 39.5856 27.4883C39.1949 26.4807 38.3354 26.2482 37.4759 26.8682C36.9289 27.2558 36.6945 27.7983 36.5383 28.4184C36.4601 28.7284 36.3039 28.8834 36.0694 28.8059C35.7569 28.7284 35.835 28.4184 35.9132 28.2634C35.9913 27.9533 36.2257 27.5658 36.382 27.2558C37.2415 25.9381 36.7727 25.0081 35.2881 24.853C35.1318 24.853 34.9755 24.853 34.8192 24.698C34.2723 24.3105 33.8816 24.853 33.569 25.0856C33.2565 25.2406 33.2565 25.7056 33.4909 26.0932C33.9597 26.8682 34.0379 27.7983 33.9597 28.5734C33.8816 29.5035 34.3504 29.426 34.8192 29.5035C36.6164 29.6585 38.3354 29.9685 40.1326 29.6585C41.4609 29.426 42.7111 30.1235 44.0394 29.736C44.9771 29.426 45.9929 29.8135 47.0087 29.8135C48.6495 29.8135 50.2904 29.6585 51.9313 29.6585C54.041 29.6585 56.1507 29.1159 58.1823 28.2634C59.9794 27.5658 60.3701 25.3956 58.9636 24.1555C58.4167 23.6904 58.026 23.7679 57.8697 24.4655C57.6353 25.4731 57.2446 26.5582 57.4009 27.6433C57.479 27.9533 57.2446 28.3409 57.0102 28.3409C56.6977 28.3409 56.6195 28.0308 56.5414 27.7208C56.4633 27.2558 56.6977 26.7907 56.6977 26.3257C56.2288 26.3257 55.9163 26.6357 55.5256 26.8682C54.3535 27.5658 53.2596 28.3409 51.9313 28.8059C51.775 28.8834 51.6187 28.9609 51.4625 28.8059C51.3062 28.7284 51.3062 28.5734 51.3843 28.4959C51.5406 28.3409 51.775 28.1083 51.3843 27.9533C51.2281 27.8758 50.9155 28.1083 50.8374 28.2634C50.6811 28.7284 50.4467 28.8834 49.9779 28.7284C49.8216 28.6509 49.7435 28.8059 49.6653 28.8834C49.1184 29.426 48.9621 28.9609 48.8839 28.4959C48.8058 28.1083 48.7277 27.7983 48.8058 27.4108C48.8839 27.0232 48.7277 26.9457 48.4151 26.8682C47.3993 26.4807 46.3054 26.2482 45.2115 26.6357C45.4459 27.1782 45.7585 27.6433 45.9929 28.1083C46.071 28.3409 46.3054 28.5734 45.9147 28.7284C45.6022 28.8834 45.4459 28.7284 45.2896 28.3409C45.1334 27.8758 44.8208 27.4883 44.5864 27.1007C44.1957 26.4807 43.6488 26.4032 43.1018 26.8682C42.5548 27.4108 42.1641 28.0308 41.8516 28.7284C41.7735 28.9609 41.6172 29.1159 41.3828 29.0384C41.0702 28.9609 41.2265 28.7284 41.3046 28.4959C41.539 28.1083 41.6953 27.6433 41.9297 27.2558C42.633 26.1707 43.4143 25.2406 44.8989 26.0156C44.9771 26.0932 45.0552 26.0932 45.1334 25.9381C45.3678 25.3181 45.9929 25.4731 46.4617 25.4731C46.8524 25.4731 47.2431 25.3956 47.7119 25.3956C47.3212 24.6205 47.0086 23.4579 46.6961 22.2178ZM62.7924 9.73914C62.7924 9.50662 62.6361 9.50662 62.4798 9.50662C61.9329 9.42911 61.3859 9.19659 60.9171 8.80906C60.4483 8.42152 59.9794 8.189 59.4325 8.03399C59.0418 7.87897 58.8855 7.95648 58.6511 8.26651C58.1823 8.96407 57.7916 9.73914 57.3228 10.4367C55.9163 12.5294 54.4317 14.6221 52.9471 16.6373C52.7127 17.0248 52.6345 17.2573 52.7908 17.5674C53.1034 18.3424 53.1815 19.2725 53.5722 20.0476C54.1191 21.2102 54.041 21.1327 55.1349 20.3576C56.1507 19.6601 57.0102 18.8075 58.1823 18.3424C58.573 18.1874 58.7292 18.0324 58.8855 17.5674C59.4325 16.0172 59.8232 14.4671 60.6827 13.0719C61.3078 12.0644 62.011 11.0568 62.6361 9.97167C62.6361 9.97167 62.7924 9.89416 62.7924 9.73914ZM60.9952 7.18141C60.7608 7.49144 60.6827 7.64645 61.1515 7.87897C62.011 8.26651 62.9486 8.34401 63.73 8.73155C65.0583 9.35161 65.0583 8.34401 65.449 7.72396C65.5272 7.64645 65.6053 7.49144 65.6053 7.41393C66.1523 6.40634 66.7774 5.39874 66.9336 4.15863C67.0118 3.77109 66.9336 3.77109 66.6211 3.8486C65.3709 4.15863 64.1988 3.69359 63.1049 3.22854C62.558 2.99602 62.1673 2.84101 62.4017 3.69359C62.4798 4.08112 61.9329 4.54616 62.4017 4.85619C62.9486 5.24373 62.4798 5.32124 62.2454 5.39874C61.6984 5.63126 61.6203 5.86379 62.011 6.17381C62.1673 6.32883 62.3235 6.32883 62.2454 6.56135C62.1673 6.87138 61.8547 6.71636 61.464 6.71636C62.011 7.02639 62.0891 7.33642 61.6984 7.64645C61.1515 7.95648 61.3078 7.18141 60.9952 7.18141ZM22.3173 27.9533C23.0205 27.6433 23.88 27.8758 24.5833 27.5658C25.2084 27.3333 25.3646 26.8682 25.0521 26.2482C24.6614 25.5506 24.1144 25.1631 23.3331 25.2406C22.9424 25.2406 22.5517 25.2406 22.2392 25.2406C20.7545 25.3181 19.2699 25.2406 17.9416 26.0156C17.7853 26.0932 17.3946 26.1707 17.4728 26.4807C17.4728 26.7907 17.7853 26.8682 18.0197 27.0232C19.2699 27.7208 20.9108 27.4883 22.3173 27.9533ZM61.2296 43.9973C61.1515 43.0672 60.6045 42.4472 59.9794 41.8271C59.4325 41.3621 59.0418 41.3621 58.6511 41.9821C57.6353 43.2997 58.1041 44.5399 58.7292 45.78C59.1199 46.555 59.9794 46.7101 60.3701 46.09C60.9171 45.4699 61.0733 44.6949 61.2296 43.9973ZM25.8335 21.1327C25.2865 20.5901 24.5051 20.6677 23.88 20.4351C22.3173 19.8926 20.7545 19.8151 19.1918 20.4351C18.9574 20.5126 18.8011 20.7452 18.5667 20.3576C18.4104 20.1251 17.9416 20.2026 17.7853 20.5126C17.6291 20.9002 17.9416 20.9002 18.2542 21.0552C19.895 21.9853 21.6922 21.9853 23.4112 21.5202C24.1144 21.4427 24.974 21.5977 25.8335 21.1327ZM66.6211 2.84101C66.9336 2.91851 67.0899 2.91851 67.2462 2.68599C67.3243 2.45347 67.168 2.29846 67.0899 2.14344C66.2304 0.903328 64.8239 0.593299 63.4956 0.283271C62.9486 0.128256 62.2454 0.670807 62.4017 0.980835C62.558 1.36837 62.7142 1.75591 63.183 1.98843C64.277 2.53098 65.2928 3.30605 66.6211 2.84101ZM29.2715 27.5658C29.4278 27.7208 30.2091 26.7907 29.8966 27.9533C29.8185 28.1858 30.0529 28.2634 30.2091 28.2634C30.9905 28.4184 31.6938 28.6509 32.4751 28.8059C33.2565 28.9609 33.2565 28.6509 33.2565 28.1083C33.2565 27.7983 33.0221 27.3333 32.9439 27.3333C32.0063 27.7983 32.1626 26.8682 31.9282 26.5582C31.7719 26.4032 31.9282 26.0932 31.5375 25.9381C30.8342 25.7056 30.131 25.6281 29.5059 25.8606C28.959 26.0931 29.2715 26.7907 29.2715 27.3333C29.2715 27.4108 29.2715 27.4883 29.2715 27.5658ZM56.3851 40.1219C56.3851 40.432 56.4633 40.742 56.6195 41.052C56.7758 41.3621 57.1665 41.2846 57.479 41.2846C57.7135 41.2846 57.5572 41.052 57.479 40.897C57.0102 39.2694 57.4009 37.6417 59.1981 36.9442C59.3543 36.8666 59.3543 36.8666 59.2762 36.7116C59.1981 36.6341 59.3543 36.4016 59.1981 36.4791C58.7292 36.8666 58.2604 36.3241 57.7916 36.6341C57.4009 36.8666 57.0884 37.2542 56.8539 37.6417C56.4633 38.4168 56.6195 39.3469 56.3851 40.1219ZM58.1823 40.0444C58.2604 40.0444 58.4167 40.0444 58.4948 39.9669C58.9636 39.5019 59.4325 39.1144 59.9794 39.9669C60.0576 40.1219 60.2138 40.0444 60.3701 39.8894C60.7608 39.5019 60.9171 39.1919 60.4482 38.7268C60.1357 38.4168 59.9013 38.0293 59.4325 37.9517C59.0418 37.8742 58.6511 38.1843 58.4948 38.4943C58.2604 38.9593 58.026 39.4244 58.1823 40.0444ZM57.7916 21.3652C57.8697 20.9002 57.9479 20.3576 58.1823 19.8926C58.2604 19.7376 58.3386 19.5826 58.1823 19.35C58.026 19.1175 57.8697 19.35 57.7134 19.35C56.9321 19.505 56.5414 20.0476 56.0726 20.5901C55.9944 20.6677 55.8382 20.8227 55.9944 20.9002C56.0726 20.9777 56.2288 20.9002 56.307 20.8227C57.0102 20.1251 57.0102 20.1251 57.4009 20.9777C57.5572 21.1327 57.5572 21.2877 57.7916 21.3652ZM49.8216 43.9973C49.8997 44.0748 49.9779 44.0748 49.9779 44.1523C50.6811 43.3772 51.3843 42.5247 52.2438 41.5946C50.603 41.9046 50.603 43.2997 49.8216 43.9973ZM53.0252 27.6433C53.6503 27.3333 54.1973 27.1007 54.7442 26.7907C54.9005 26.7132 55.0568 26.5582 54.9005 26.4032C54.8224 26.3257 54.6661 26.3257 54.588 26.3257C54.4317 26.9457 53.8066 26.6357 53.4159 26.9457C53.0252 27.1007 52.8689 27.2558 53.0252 27.6433ZM49.8997 22.2178C50.3685 21.8303 50.3685 21.2102 50.603 20.6677C50.6811 20.4351 50.2904 20.5126 50.2123 20.3576C50.1341 20.2026 50.056 20.5126 50.056 20.5901C50.4467 21.2102 49.8997 21.6752 49.8997 22.2178ZM59.745 3.69359C59.2762 4.23614 59.1981 4.62367 59.0418 5.01121C58.9636 5.16622 58.8855 5.32124 59.1199 5.32124C59.2762 5.32124 59.5106 5.39874 59.5887 5.16622C59.5887 4.77869 59.6669 4.31364 59.745 3.69359ZM56.6977 22.9929C57.4009 22.9154 57.5572 22.5278 57.6353 22.1403C57.6353 21.9853 57.5572 21.9853 57.4009 21.9853C56.8539 21.9853 57.0884 22.5278 56.6977 22.9929ZM57.0884 24.233C56.9321 24.543 56.6977 24.853 56.5414 25.1631C56.3851 25.3956 56.6195 25.5506 56.6977 25.6281C56.9321 25.7831 56.9321 25.4731 57.0102 25.3956C57.1665 25.0081 57.0102 24.6205 57.0884 24.233Z" fill="black"/>
<path d="M9.40608 37.7308C8.9246 38.56 8.16799 39.0877 7.41138 39.6154C6.72354 40.0677 6.03571 39.9923 5.41667 39.3892C4.79762 38.7108 4.17857 38.0323 3.83466 37.0523C3.69709 38.1077 4.17857 38.8615 4.66005 39.6154C4.8664 39.9169 5.21032 40.0677 4.79762 40.4446C4.66005 40.5954 4.79762 40.7462 4.8664 40.9723C5.62302 43.8369 5.96693 46.7769 5.89815 49.7923C5.89815 52.0538 5.96693 54.24 6.03571 56.5015C6.03571 57.9338 5.96693 59.3662 5.89815 60.7985C5.89815 61.1 5.82937 61.4769 5.48545 61.4769C5.07275 61.4769 5.21032 61.0246 5.21032 60.7231C5.34788 58.9892 5.55423 57.2554 5.41667 55.5215C5.2791 53.4862 5.2791 51.4508 5.2791 49.4154C5.2791 46.9277 4.93518 44.5154 4.52249 42.1785C4.38492 41.5754 3.90344 41.1231 3.83466 40.4446C3.69709 39.3892 3.21561 38.4846 3.14683 37.3538C3.07804 36.2985 2.87169 35.2431 2.73413 34.1123C2.59656 33.2831 2.32143 32.5292 2.39021 31.6246C2.459 30.72 2.11508 29.8154 2.11508 28.9108C2.18386 27.1015 2.25265 25.2923 2.39021 23.4831C2.459 22.3523 2.59656 21.1462 2.73413 20.0154C2.94048 18.2815 4.04101 17.3015 5.6918 17.1508C6.5172 17.0754 7.41138 17 8.16799 17C9.68122 17.0754 11.1944 17.3015 12.5701 17.98C12.914 18.1308 13.0516 18.4323 12.9828 18.8092C12.7765 20.1662 12.6389 21.5231 12.4325 22.9554C12.1574 25.3677 11.9511 27.78 11.5384 30.1923C11.2632 31.7 11.1257 33.2831 10.7817 34.7154C10.3003 36.7508 9.95635 38.7862 8.99339 40.5954C7.96164 42.7062 7.75529 45.0431 7.54894 47.3046C7.34259 49.9431 7.27381 52.5062 6.99868 55.1446C6.86111 56.6523 6.72355 58.0846 6.79233 59.5923C6.86111 60.0446 7.13624 60.4215 6.92989 60.9492C6.86111 61.2508 7.13624 61.1 7.27381 61.1754C8.44312 61.1754 9.40609 61.8538 10.2315 62.6831C10.6442 63.1354 10.5754 64.2662 9.95635 64.6431C8.99339 65.2462 7.89286 65.6985 6.79233 65.8492C5.96693 66 5.14153 66 4.38492 66C2.87169 66 1.6336 65.2462 0.395503 64.4923C-0.154762 64.1908 -0.0859788 63.5123 0.32672 62.9846C1.56481 61.3262 3.21561 61.4015 4.93519 61.6277C5.14153 61.6277 5.2791 61.7785 5.21032 62.0046C5.14153 62.3062 4.93519 62.5323 4.59127 62.4569C4.24735 62.3062 3.90344 62.3815 3.55952 62.3062C2.59656 62.0046 1.77116 62.4569 1.08333 63.1354C0.601852 63.5877 0.739418 64.04 1.2209 64.3415C2.87169 65.2462 4.52249 65.6231 6.37963 65.3215C7.34259 65.1708 8.16799 64.8692 9.06217 64.4169C9.75 64.04 9.88757 63.2862 9.26852 62.8338C8.37434 62.1554 7.41138 61.6277 6.24206 62.0046C6.1045 62.08 5.89815 62.3815 5.76058 62.0046C5.6918 61.7785 5.76058 61.4769 5.96693 61.4769C6.31085 61.4015 6.17328 61.3262 6.17328 61.0246C6.1045 59.8938 5.96693 58.7631 6.17328 57.6323C6.37963 56.7277 6.24206 55.8231 6.31085 54.9185C6.5172 52.9585 6.65476 50.9231 6.79233 48.9631C6.86111 47.4554 7.06746 45.9477 7.27381 44.44C7.54894 42.8569 7.75529 41.1231 8.71825 39.7662C9.3373 39.0877 9.19973 38.4092 9.40608 37.7308ZM12.1574 19.6385C11.1944 19.94 10.3003 20.3923 9.26852 20.3169C8.9246 20.3169 8.58069 20.0908 8.23677 20.1662C6.92989 20.2415 5.6918 20.0154 4.4537 19.4877C4.04101 19.3369 3.69709 19.4123 3.49074 20.0154C3.07804 21.4477 2.87169 22.88 3.00926 24.3877C3.00926 24.5385 2.94048 24.7646 3.14683 24.84C3.35317 24.9154 3.49074 24.7646 3.55952 24.6138C3.90344 24.1615 4.38492 23.9354 4.8664 23.7846C6.1045 23.4077 7.34259 23.5585 8.64947 23.7846C9.26852 23.86 9.88757 24.1615 10.4378 24.5385C11.0569 24.9908 11.2632 25.6692 11.1944 26.4231C11.1257 27.1015 10.6442 27.2523 10.1627 27.4031C9.68122 27.5538 9.19973 27.5538 8.71825 27.6292C6.79233 27.8554 5.00397 26.6492 3.07804 26.8754C3.07804 27.5538 3.07804 28.3077 3.07804 29.0615C3.83466 27.9308 4.10979 27.78 4.79762 28.1569C5.2791 28.3831 5.07275 28.9108 5.07275 29.2877C5.07275 29.6646 4.72884 29.8154 4.59127 29.9662C4.17857 30.4185 3.76587 29.8154 3.35317 29.9662C3.07804 31.3985 3.55952 32.7554 3.69709 34.1123C4.59127 33.5846 4.59127 33.5846 5.00397 33.8108C4.93518 34.1123 4.17857 33.9615 4.59127 34.2631C5.07275 34.64 4.79762 34.7908 4.72884 35.0923C4.59127 35.62 4.24735 35.1677 4.04101 35.1677C4.17857 35.5446 4.24735 35.8462 4.38492 36.0723C4.4537 36.1477 4.52249 36.3738 4.66005 36.0723C4.93518 35.62 5.07275 35.9969 5.2791 36.2231C5.48545 36.5246 5.55423 36.7508 5.14153 36.9015C5.07275 36.9015 5.00397 36.9015 5.00397 37.0523C5.00397 37.7308 6.37963 39.1631 6.92989 38.9369C7.41138 38.7108 7.89286 38.4846 8.30556 38.1077C9.3373 37.1277 9.75 35.7708 10.0939 34.4138C10.8505 31.6246 11.332 28.76 11.6071 25.8954C11.7447 24.4631 11.8823 23.1062 12.0198 21.6738C11.9511 21.0708 12.2262 20.3923 12.1574 19.6385ZM3.35317 25.8954C3.49074 25.7446 3.62831 25.4431 3.83466 25.5938C4.24735 25.8954 4.72884 25.8954 5.14153 26.0462C6.65476 26.7246 8.23677 27.3277 9.88757 26.5738C10.5066 26.2723 10.6442 25.8954 10.1627 25.3677C9.75 24.84 9.13095 24.6892 8.5119 24.5385C7.13624 24.2369 5.6918 24.1615 4.31614 24.6892C3.90344 24.9154 3.49074 25.2923 3.35317 25.8954ZM11.9511 18.8092C10.6442 17.6785 6.79233 17.6031 4.4537 18.3569C6.17328 19.4877 10.2315 19.7138 11.9511 18.8092Z" fill="black"/>
<path d="M54.8953 55.3646C54.5107 55.6373 54.2031 56.0918 54.2031 56.6372C54.2031 57.4553 53.4339 57.728 53.2801 58.3643C53.2031 58.5461 52.9724 58.5461 53.0493 58.8188C53.0493 58.9097 53.2031 59.0006 53.2031 59.0006C53.357 58.9097 53.4339 58.7279 53.4339 58.5461C53.4339 58.3643 53.5108 58.2734 53.7416 58.0916C53.8185 58.637 53.9723 59.0006 53.4339 59.2733C53.0493 59.4551 52.8185 59.7278 52.7416 60.364C52.6647 61.0003 52.1263 61.5457 51.7417 62.0911C51.2033 62.9092 50.4341 63.4546 49.4342 64C49.8187 63.2728 49.8957 62.7274 49.4342 62.182C49.1265 61.8184 49.2803 61.8184 49.588 61.6366C50.5879 61.273 51.2802 60.364 51.9724 59.4551C52.2032 59.1824 51.9724 59.0915 51.8186 59.0006C51.1263 58.637 50.3572 59.0006 49.9726 59.9095C49.8187 60.2731 49.7418 60.4549 49.3572 60.2731C49.5111 60.0913 49.588 59.8186 49.7418 59.6369C48.7419 60.6367 47.2804 60.9094 46.742 62.5456C46.4343 63.3637 46.0497 63.2728 45.7421 62.5456C45.819 62.4547 45.8959 62.3638 45.9728 62.2729C46.5113 61.5457 47.1266 60.9094 47.8189 60.0004C46.8189 60.1822 46.2036 60.9094 45.5882 61.4548C45.3575 61.6366 45.2036 61.7275 45.0498 61.4548C44.896 61.0912 45.1267 61.0912 45.3575 61.0003C46.1267 60.6367 46.5882 59.9096 47.1266 59.2733C47.3574 59.0006 47.665 58.9097 47.8958 59.0006C48.4342 59.1824 48.7419 58.8188 48.8957 58.3643C49.1265 57.5462 49.6649 57.1826 50.4341 57.0008C49.9726 57.6371 49.588 58.2734 49.2803 59.0915C49.8187 58.7279 50.1264 58.1825 50.4341 57.6371C51.5879 55.6373 52.9724 53.7284 53.9723 51.5469C54.0492 51.3651 54.28 51.2742 54.3569 51.1833C54.5877 50.7288 54.8184 51.2742 54.9723 51.1833C55.0492 51.5469 54.9723 51.7286 54.6646 51.8195C54.3569 51.9104 54.1262 51.9104 54.5107 52.3649C54.7415 52.6376 54.3569 53.0921 54.2031 53.3648C53.2801 54.9101 52.5878 56.5463 51.5879 58.0007C51.6648 58.0916 51.7417 58.0916 51.7417 58.1825C52.5109 58.7279 53.0493 58.3643 53.2801 57.5462C53.5877 56.7281 54.2031 56.1827 54.5107 55.3646C54.5107 55.001 54.7415 55.2737 54.8953 55.3646Z" fill="black"/>
<path d="M33.6773 35.1796C33.1983 35.2616 32.6394 35.0155 32.0006 34.8514C30.0844 34.4412 28.3279 33.7849 26.5713 33.0465C26.2519 32.8824 25.9326 32.8824 26.0124 32.3902C26.0923 31.8979 26.5713 31.98 26.8907 32.062C27.769 32.2261 28.4077 32.8824 29.1263 33.2106C30.4836 33.7849 31.9208 34.031 33.2781 34.2771C35.6734 34.6873 38.0687 35.0155 40.5438 35.0155C41.9012 35.0155 43.2585 35.1796 44.6158 35.0155C45.3344 34.9335 46.2127 35.0155 47.0111 35.0975C48.2886 35.1796 49.4863 34.8514 50.6839 34.6873C51.3227 34.6053 51.9614 34.6053 52.5203 34.6053C54.4365 34.3592 56.4326 34.3592 58.1892 33.3747C58.5085 33.2106 58.9077 33.1286 58.9876 33.4567C59.0674 33.7849 58.7481 33.949 58.4287 34.1131C56.4326 34.9335 54.3567 35.1796 52.2808 35.3437C50.7638 35.4257 49.3266 36 47.8096 35.918C46.4522 35.8359 45.0949 36 43.8174 35.8359C42.9391 35.7539 41.981 36 41.1027 36C39.6656 36 38.2284 36 36.7912 35.6718C35.8331 35.1796 34.875 35.0975 33.6773 35.1796Z" fill="black"/>
<path d="M49 62.3233C48.0244 63.5685 46.7561 64.3348 45 63.8558C45.5854 63.1853 46.561 63.0896 47.2439 62.4191C47.3415 62.3233 47.439 62.2275 47.5366 62.3233C47.8293 62.3233 48.0244 61.7486 48.2195 62.1317C48.4146 62.4191 47.9268 62.5149 47.8293 62.8022C47.8293 62.898 47.7317 62.9938 47.7317 63.1854C48.1219 62.8022 48.5122 62.6106 49 62.3233Z" fill="black"/>
<path d="M53 49C53.1724 48.3333 53.5173 47.7273 54.8968 47C55.4141 47.9091 53.8622 48.3939 53 49Z" fill="black"/>
<path d="M45 62.1892C44.9231 62.2798 44.8462 62.3703 44.7692 62.4609C44.3846 63.1852 43.9231 63.7284 43 64C43.5385 63.1852 44.1538 62.7325 44.6923 62.0987C44.7692 61.9176 44.9231 62.0082 45 62.1892Z" fill="black"/>
<path d="M52.4149 51.24C52.5885 51.16 52.7622 51.08 52.7622 51C53.6303 51.88 51.894 52.28 51.1995 53C50.3313 52.2 52.5885 51.88 52.4149 51.24Z" fill="black"/>
<path d="M19 30.8148C19 31.4074 18.4167 32 18 32C17.6667 32 17 31.3333 17 30.8889C17 30.4444 17.5833 30 18.3333 30C18.9167 30.0741 18.9167 30.5185 19 30.8148Z" fill="black"/>
<path d="M17.5882 36C17.1176 36 17 35.7647 17 35.1765C17 34.5882 17 34 17.9412 34C18.5294 34 19 34.1176 19 34.8235C18.8824 35.6471 18.4118 35.8824 17.5882 36Z" fill="black"/>
<path d="M6 30C5.16667 30.5257 5.16667 31.1264 4.5 31.6521C3.83333 32.1777 3.5 32.0275 2.83333 31.7272C2.66667 31.577 2.33333 31.4268 2.16667 31.2766C1.83333 30.9762 2 30.5257 2.66667 30.5257C3.83333 30.4506 5 30.3755 6 30Z" fill="black"/>
</svg>
