<svg width="141" height="110" viewBox="0 0 141 110" fill="none" xmlns="http://www.w3.org/2000/svg">
<path d="M47 1.95455V86H51V0L47 1.95455Z" fill="url(#paint0_linear_1_496)"/>
<path d="M41 86H44V4L41 5.94723V86Z" fill="url(#paint1_linear_1_496)"/>
<path d="M36 86H39V8L36 9.93923V86Z" fill="url(#paint2_linear_1_496)"/>
<path d="M30 86H33V12H32.9L30 13.9304V86Z" fill="url(#paint3_linear_1_496)"/>
<path d="M24 86H27V15H26.9L24 16.9511V86Z" fill="url(#paint4_linear_1_496)"/>
<path d="M17 86H21V18L17 20.0772V86Z" fill="url(#paint5_linear_1_496)"/>
<path d="M12 86H15V22L12 24.068V86Z" fill="url(#paint6_linear_1_496)"/>
<path d="M6.00002 86H10V26L6.00002 28.0578V86Z" fill="url(#paint7_linear_1_496)"/>
<path d="M64.2063 28H71.0159C71.9444 28 72.7698 28.1075 73.4921 28.4301C74.2143 28.6452 74.7302 29.0753 75.246 29.5054C75.6587 29.9355 76.0714 30.4731 76.2778 31.1183C76.4841 31.7634 76.5873 32.4086 76.5873 33.1613C76.5873 34.0215 76.381 34.7742 75.9683 35.5269C75.5556 36.2796 74.9365 36.9247 73.9048 37.4624C74.5238 37.6774 75.0397 38 75.4524 38.4301C75.8651 38.8602 76.1746 39.2903 76.381 39.7204C76.5873 40.1505 76.7937 40.6882 76.8968 41.2258C77 41.7634 77 42.1935 77 42.5161C77 43.3763 76.8968 44.0215 76.5873 44.7742C76.2778 45.5269 75.8651 46.0645 75.4524 46.4946C74.9365 46.9247 74.4206 47.3548 73.6984 47.5699C73.0794 47.7849 72.3571 48 71.6349 48H64V28H64.2063ZM74.2143 33.2688C74.2143 32.3011 73.9048 31.4409 73.3889 30.7957C72.7698 30.1505 71.8413 29.828 70.5 29.828H66.4762V36.4946H70.5C71.7381 36.4946 72.6667 36.172 73.2857 35.6344C73.9048 35.0968 74.2143 34.3441 74.2143 33.2688ZM74.8333 42.3011C74.8333 41.871 74.7302 41.3333 74.627 40.9032C74.4206 40.4731 74.2143 40.043 73.9048 39.7204C73.5952 39.3978 73.1825 39.0753 72.6667 38.8602C72.1508 38.6452 71.6349 38.5376 71.0159 38.5376H66.5794V46.0645H71.0159C71.7381 46.0645 72.254 45.957 72.7698 45.7419C73.2857 45.5269 73.6984 45.3118 73.9048 44.8817C74.2143 44.5591 74.4206 44.129 74.5238 43.6989C74.7302 43.2688 74.8333 42.7312 74.8333 42.3011Z" fill="white"/>
<path d="M84 48H81V27H84V48Z" fill="white"/>
<path d="M91 29.5556C91 30 90.8966 30.3333 90.5862 30.6667C90.2759 31 89.9655 31.1111 89.4483 31.1111C89.0345 31.1111 88.7241 31 88.4138 30.6667C88.1034 30.3333 88 30 88 29.5556C88 29.1111 88.1034 28.6667 88.4138 28.4444C88.7241 28.1111 89.0345 28 89.4483 28C89.8621 28 90.2759 28.1111 90.5862 28.4444C90.8966 28.7778 91 29.1111 91 29.5556ZM88.3103 48V33.3333H90.5862V48H88.3103Z" fill="white"/>
<path d="M98.0909 30V33.6H102.182V35.3455H98.0909V43.8545C98.0909 44.5091 98.1932 45.0545 98.5 45.4909C98.7045 45.9273 99.2159 46.1455 100.034 46.1455C100.648 46.1455 101.466 45.9273 102.591 45.6L103 47.2364C102.489 47.4545 101.977 47.6727 101.364 47.7818C100.75 47.8909 100.239 48 99.625 48C97.1705 48 95.9432 46.8 95.9432 44.5091V35.2364H94V33.9273L96.0455 33.2727L96.7614 30.1091L98.0909 30Z" fill="white"/>
<path d="M108.314 46.303H117V48H105V46.5152L113.457 35.9091L113.343 35.697H105.914V34H116.657V35.4848L108.314 46.0909V46.303Z" fill="white"/>
<path d="M64 73.8925V54H75.5862V55.9355H66.2759V62.4946H74.1379V64.3226H66.2759V72.0645H76V74H64V73.8925Z" fill="white"/>
<path d="M80.8889 71.3235C81.7778 71.7353 82.6667 71.9412 83.4444 72.0441C84.2222 72.1471 84.8889 72.25 85.4444 72.25C85.8889 72.25 86.3333 72.25 86.7778 72.1471C87.2222 72.0441 87.5556 71.9412 87.8889 71.7353C88.2222 71.5294 88.4444 71.3235 88.5556 71.1176C88.7778 70.8088 88.7778 70.5 88.7778 70.0882C88.7778 69.7794 88.6667 69.4706 88.5556 69.1618C88.3333 68.9559 88.1111 68.6471 87.8889 68.5441C87.5556 68.3382 87.2222 68.2353 86.8889 68.1324C86.5556 68.0294 86.1111 67.8235 85.6667 67.7206C85 67.5147 84.4444 67.3088 83.7778 67.1029C83.2222 66.8971 82.6667 66.6912 82.2222 66.3824C81.7778 66.0735 81.4444 65.7647 81.1111 65.3529C80.7778 64.9412 80.6667 64.4265 80.6667 63.8088C80.6667 63.1912 80.7778 62.5735 81.1111 62.1618C81.4444 61.75 81.7778 61.2353 82.2222 60.9265C82.6667 60.6176 83.2222 60.4118 83.8889 60.2059C84.5556 60.1029 85.2222 60 86 60C86.3333 60 86.6667 60 87 60.1029C87.3333 60.1029 87.7778 60.2059 88.1111 60.3088C88.5556 60.4118 88.8889 60.5147 89.2222 60.6176C89.5556 60.7206 90 60.9265 90.2222 61.0294L89.4445 62.5735C88.6667 62.2647 88 62.0588 87.4444 61.9559C86.8889 61.8529 86.3333 61.8529 85.7778 61.8529C85.4444 61.8529 85 61.8529 84.6667 61.9559C84.3333 62.0588 84 62.1618 83.7778 62.2647C83.5556 62.4706 83.3333 62.6765 83.1111 62.8824C82.8889 63.1912 82.8889 63.5 82.8889 63.8088C82.8889 64.1176 83 64.3235 83.2222 64.5294C83.4444 64.7353 83.6667 64.9412 84 65.1471C84.3333 65.3529 84.6667 65.4559 85 65.5588C85.3333 65.6618 85.6667 65.7647 86 65.8676C86.6667 66.0735 87.2222 66.2794 87.7778 66.4853C88.3333 66.6912 88.8889 66.8971 89.4445 67.2059C89.8889 67.5147 90.3333 67.9265 90.5556 68.3382C90.8889 68.75 91 69.3676 91 70.0882C91 70.8088 90.8889 71.3235 90.5556 71.8382C90.2222 72.3529 89.8889 72.7647 89.3333 73.0735C88.7778 73.3824 88.2222 73.5882 87.5556 73.7941C86.8889 73.8971 86.1111 74 85.2222 74C84.7778 74 84.3333 74 83.8889 73.8971C83.4444 73.8971 83 73.7941 82.4444 73.6912C82 73.5882 81.5556 73.4853 81.1111 73.3824C80.6667 73.2794 80.3333 73.0735 80 72.9706L80.8889 71.3235Z" fill="white"/>
<path d="M97.1461 57V60.4H101.191V62.0485H97.1461V70.0848C97.1461 70.703 97.2472 71.2182 97.5506 71.6303C97.7528 72.0424 98.2584 72.2485 99.0674 72.2485C99.6742 72.2485 100.483 72.0424 101.596 71.7333L102 73.2788C101.494 73.4848 100.989 73.6909 100.382 73.7939C99.7753 73.897 99.2697 74 98.6629 74C96.236 74 95.0225 72.8667 95.0225 70.703V61.9455H93V60.7091L95.0225 60.0909L95.7303 57.103L97.1461 57Z" fill="white"/>
<path d="M114.889 72.0441H116.889L117 73.3824C116.667 73.5882 116.222 73.6912 115.778 73.7941C115.333 73.8971 114.889 73.8971 114.444 73.8971C113.889 73.8971 113.444 73.7941 113.111 73.5882C112.778 73.3824 112.667 72.8677 112.556 72.25C112 72.6618 111.444 73.0735 110.889 73.2794C110.333 73.4853 109.889 73.6912 109.444 73.7941C109 73.8971 108.667 74 108.222 74C107.889 74 107.556 74 107.333 74C106.444 74 105.778 73.8971 105.222 73.5882C104.667 73.2794 104.222 72.9706 103.889 72.6618C103.556 72.25 103.333 71.8382 103.222 71.4265C103.111 71.0147 103 70.6029 103 70.1912C103 68.9559 103.444 68.0294 104.333 67.3088C105.222 66.5882 106.667 66.1765 108.556 66.0735L112.333 65.8676V65.0441C112.333 63.9118 112.111 63.0882 111.667 62.6765C111.222 62.2647 110.444 61.9559 109.222 61.9559C108.556 61.9559 107.778 62.0588 107 62.1618C106.222 62.2647 105.444 62.4706 104.667 62.6765L104.333 61.1324C105.222 60.8235 106.111 60.5147 107.111 60.3088C108.111 60.1029 109.111 60 110 60C111.556 60 112.778 60.3088 113.667 61.0294C114.556 61.6471 115 62.8824 115 64.5294V72.0441H114.889ZM108.778 67.5147C107.778 67.5147 107 67.8235 106.556 68.2353C106.111 68.6471 105.889 69.2647 105.889 69.8824C105.889 70.7059 106.111 71.2206 106.556 71.6323C107 72.0441 107.667 72.25 108.667 72.25C109.333 72.25 110 72.1471 110.667 71.8382C111.333 71.5294 112 71.1176 112.667 70.5V67.3088L108.778 67.5147Z" fill="white"/>
<path d="M122.091 57V60.4H126.182V62.0485H122.091V70.0848C122.091 70.703 122.193 71.2182 122.5 71.6303C122.705 72.0424 123.216 72.2485 124.034 72.2485C124.648 72.2485 125.466 72.0424 126.591 71.7333L127 73.2788C126.489 73.4848 125.977 73.6909 125.364 73.7939C124.75 73.897 124.239 74 123.625 74C121.17 74 119.943 72.8667 119.943 70.703V61.9455H118V60.7091L120.045 60.0909L120.761 57.103L122.091 57Z" fill="white"/>
<path d="M135.27 60C136.243 60 137 60.1087 137.649 60.4348C138.297 60.6522 138.838 60.9783 139.27 61.413C139.703 61.8478 140.027 62.2826 140.243 62.8261C140.459 63.3696 140.676 63.8043 140.784 64.3478C140.892 64.8913 141 65.3261 141 65.7609C141 66.1957 141 66.6304 141 66.8478V68.0435H131.486C131.486 68.6957 131.595 69.3478 131.703 70C131.811 70.6522 132.027 71.087 132.351 71.6304C132.676 72.0652 133.108 72.5 133.649 72.7174C134.189 73.0435 134.838 73.1522 135.595 73.1522C136.459 73.1522 137.216 73.0435 137.865 72.9348C138.514 72.7174 139.27 72.5 140.135 72.1739L140.676 73.6957C139.811 74.1304 138.946 74.4565 138.081 74.6739C137.216 74.8913 136.351 75 135.378 75C134.081 75 133.108 74.7826 132.243 74.4565C131.378 74.0217 130.73 73.587 130.297 72.9348C129.865 72.2826 129.541 71.5217 129.324 70.6522C129.108 69.7826 129 68.8043 129 67.8261C129 67.3913 129 66.9565 129.108 66.413C129.216 65.8696 129.324 65.3261 129.432 64.7826C129.649 64.2391 129.865 63.6957 130.081 63.1522C130.405 62.6087 130.73 62.1739 131.27 61.7391C131.703 61.3044 132.243 60.9783 133 60.7609C133.649 60.2174 134.405 60 135.27 60ZM135.378 61.8478C134.73 61.8478 134.081 61.9565 133.649 62.2826C133.216 62.5 132.784 62.8261 132.459 63.2609C132.135 63.6957 131.919 64.2391 131.811 64.7826C131.703 65.3261 131.595 65.9783 131.486 66.5217H138.73C138.73 65.8696 138.622 65.2174 138.514 64.6739C138.405 64.1304 138.189 63.587 137.973 63.1522C137.757 62.7174 137.324 62.3913 136.892 62.1739C136.568 61.9565 136.027 61.8478 135.378 61.8478Z" fill="white"/>
<path d="M0 110H3V32.9723L0 31V110Z" fill="url(#paint8_linear_1_496)"/>
<path d="M6 35V110H10V36.9651L6 35Z" fill="url(#paint9_linear_1_496)"/>
<path d="M12 39V110H15V40.9571L12 39Z" fill="url(#paint10_linear_1_496)"/>
<path d="M17 42V110H21V43.9774L17 42Z" fill="url(#paint11_linear_1_496)"/>
<path d="M24 46V110H27V47.9692L24.1 46H24Z" fill="url(#paint12_linear_1_496)"/>
<path d="M30 110H33V51.9601L30 50V110Z" fill="url(#paint13_linear_1_496)"/>
<path d="M36 110H39V55.9497L36 54V110Z" fill="url(#paint14_linear_1_496)"/>
<path d="M41 58V110H44V59.9379L41 58Z" fill="url(#paint15_linear_1_496)"/>
<path d="M47 61V110H51V62.9644L47 61Z" fill="url(#paint16_linear_1_496)"/>
<defs>
<linearGradient id="paint0_linear_1_496" x1="49.0157" y1="46.3594" x2="49.0157" y2="-18.9178" gradientUnits="userSpaceOnUse">
<stop stop-color="white" stop-opacity="0"/>
<stop offset="0.1146" stop-color="#0670EB" stop-opacity="0.1146"/>
<stop offset="0.2866" stop-color="#0670EB" stop-opacity="0.2866"/>
<stop offset="0.4541" stop-color="#0670EB" stop-opacity="0.4541"/>
<stop offset="0.613" stop-color="#0670EB" stop-opacity="0.613"/>
<stop offset="0.7611" stop-color="#0670EB" stop-opacity="0.7611"/>
<stop offset="0.8943" stop-color="#0670EB" stop-opacity="0.8943"/>
<stop offset="1" stop-color="#0670EB"/>
</linearGradient>
<linearGradient id="paint1_linear_1_496" x1="42.5118" y1="48.2031" x2="42.5118" y2="-14.0379" gradientUnits="userSpaceOnUse">
<stop stop-color="white" stop-opacity="0"/>
<stop offset="0.1146" stop-color="#0670EB" stop-opacity="0.1146"/>
<stop offset="0.2866" stop-color="#0670EB" stop-opacity="0.2866"/>
<stop offset="0.4541" stop-color="#0670EB" stop-opacity="0.4541"/>
<stop offset="0.613" stop-color="#0670EB" stop-opacity="0.613"/>
<stop offset="0.7611" stop-color="#0670EB" stop-opacity="0.7611"/>
<stop offset="0.8943" stop-color="#0670EB" stop-opacity="0.8943"/>
<stop offset="1" stop-color="#0670EB"/>
</linearGradient>
<linearGradient id="paint2_linear_1_496" x1="37.5118" y1="50.0469" x2="37.5118" y2="-9.15803" gradientUnits="userSpaceOnUse">
<stop stop-color="white" stop-opacity="0"/>
<stop offset="0.1146" stop-color="#0670EB" stop-opacity="0.1146"/>
<stop offset="0.2866" stop-color="#0670EB" stop-opacity="0.2866"/>
<stop offset="0.4541" stop-color="#0670EB" stop-opacity="0.4541"/>
<stop offset="0.613" stop-color="#0670EB" stop-opacity="0.613"/>
<stop offset="0.7611" stop-color="#0670EB" stop-opacity="0.7611"/>
<stop offset="0.8943" stop-color="#0670EB" stop-opacity="0.8943"/>
<stop offset="1" stop-color="#0670EB"/>
</linearGradient>
<linearGradient id="paint3_linear_1_496" x1="31.5118" y1="51.8906" x2="31.5118" y2="-4.27813" gradientUnits="userSpaceOnUse">
<stop stop-color="white" stop-opacity="0"/>
<stop offset="0.1146" stop-color="#0670EB" stop-opacity="0.1146"/>
<stop offset="0.2866" stop-color="#0670EB" stop-opacity="0.2866"/>
<stop offset="0.4541" stop-color="#0670EB" stop-opacity="0.4541"/>
<stop offset="0.613" stop-color="#0670EB" stop-opacity="0.613"/>
<stop offset="0.7611" stop-color="#0670EB" stop-opacity="0.7611"/>
<stop offset="0.8943" stop-color="#0670EB" stop-opacity="0.8943"/>
<stop offset="1" stop-color="#0670EB"/>
</linearGradient>
<linearGradient id="paint4_linear_1_496" x1="25.5118" y1="53.2734" x2="25.5118" y2="-0.618206" gradientUnits="userSpaceOnUse">
<stop stop-color="white" stop-opacity="0"/>
<stop offset="0.1146" stop-color="#0670EB" stop-opacity="0.1146"/>
<stop offset="0.2866" stop-color="#0670EB" stop-opacity="0.2866"/>
<stop offset="0.4541" stop-color="#0670EB" stop-opacity="0.4541"/>
<stop offset="0.613" stop-color="#0670EB" stop-opacity="0.613"/>
<stop offset="0.7611" stop-color="#0670EB" stop-opacity="0.7611"/>
<stop offset="0.8943" stop-color="#0670EB" stop-opacity="0.8943"/>
<stop offset="1" stop-color="#0670EB"/>
</linearGradient>
<linearGradient id="paint5_linear_1_496" x1="19.0157" y1="54.6563" x2="19.0157" y2="3.04172" gradientUnits="userSpaceOnUse">
<stop stop-color="white" stop-opacity="0"/>
<stop offset="0.1146" stop-color="#0670EB" stop-opacity="0.1146"/>
<stop offset="0.2866" stop-color="#0670EB" stop-opacity="0.2866"/>
<stop offset="0.4541" stop-color="#0670EB" stop-opacity="0.4541"/>
<stop offset="0.613" stop-color="#0670EB" stop-opacity="0.613"/>
<stop offset="0.7611" stop-color="#0670EB" stop-opacity="0.7611"/>
<stop offset="0.8943" stop-color="#0670EB" stop-opacity="0.8943"/>
<stop offset="1" stop-color="#0670EB"/>
</linearGradient>
<linearGradient id="paint6_linear_1_496" x1="13.5118" y1="56.5" x2="13.5118" y2="7.92162" gradientUnits="userSpaceOnUse">
<stop stop-color="white" stop-opacity="0"/>
<stop offset="0.1146" stop-color="#0670EB" stop-opacity="0.1146"/>
<stop offset="0.2866" stop-color="#0670EB" stop-opacity="0.2866"/>
<stop offset="0.4541" stop-color="#0670EB" stop-opacity="0.4541"/>
<stop offset="0.613" stop-color="#0670EB" stop-opacity="0.613"/>
<stop offset="0.7611" stop-color="#0670EB" stop-opacity="0.7611"/>
<stop offset="0.8943" stop-color="#0670EB" stop-opacity="0.8943"/>
<stop offset="1" stop-color="#0670EB"/>
</linearGradient>
<linearGradient id="paint7_linear_1_496" x1="8.01574" y1="58.3438" x2="8.01574" y2="12.8015" gradientUnits="userSpaceOnUse">
<stop stop-color="white" stop-opacity="0"/>
<stop offset="0.1146" stop-color="#0670EB" stop-opacity="0.1146"/>
<stop offset="0.2866" stop-color="#0670EB" stop-opacity="0.2866"/>
<stop offset="0.4541" stop-color="#0670EB" stop-opacity="0.4541"/>
<stop offset="0.613" stop-color="#0670EB" stop-opacity="0.613"/>
<stop offset="0.7611" stop-color="#0670EB" stop-opacity="0.7611"/>
<stop offset="0.8943" stop-color="#0670EB" stop-opacity="0.8943"/>
<stop offset="1" stop-color="#0670EB"/>
</linearGradient>
<linearGradient id="paint8_linear_1_496" x1="1.4776" y1="103.399" x2="1.4776" y2="34.8479" gradientUnits="userSpaceOnUse">
<stop stop-color="white" stop-opacity="0"/>
<stop offset="0.2918" stop-color="white" stop-opacity="0.2918"/>
<stop offset="0.6317" stop-color="white" stop-opacity="0.6317"/>
<stop offset="0.8767" stop-color="white" stop-opacity="0.8767"/>
<stop offset="1" stop-color="white"/>
</linearGradient>
<linearGradient id="paint9_linear_1_496" x1="7.97013" y1="103.733" x2="7.97013" y2="38.6531" gradientUnits="userSpaceOnUse">
<stop stop-color="white" stop-opacity="0"/>
<stop offset="0.2918" stop-color="white" stop-opacity="0.2918"/>
<stop offset="0.6317" stop-color="white" stop-opacity="0.6317"/>
<stop offset="0.8767" stop-color="white" stop-opacity="0.8767"/>
<stop offset="1" stop-color="white"/>
</linearGradient>
<linearGradient id="paint10_linear_1_496" x1="13.4776" y1="104.067" x2="13.4776" y2="42.4582" gradientUnits="userSpaceOnUse">
<stop stop-color="white" stop-opacity="0"/>
<stop offset="0.2918" stop-color="white" stop-opacity="0.2918"/>
<stop offset="0.6317" stop-color="white" stop-opacity="0.6317"/>
<stop offset="0.8767" stop-color="white" stop-opacity="0.8767"/>
<stop offset="1" stop-color="white"/>
</linearGradient>
<linearGradient id="paint11_linear_1_496" x1="18.9701" y1="104.318" x2="18.9701" y2="45.3121" gradientUnits="userSpaceOnUse">
<stop stop-color="white" stop-opacity="0"/>
<stop offset="0.2918" stop-color="white" stop-opacity="0.2918"/>
<stop offset="0.6317" stop-color="white" stop-opacity="0.6317"/>
<stop offset="0.8767" stop-color="white" stop-opacity="0.8767"/>
<stop offset="1" stop-color="white"/>
</linearGradient>
<linearGradient id="paint12_linear_1_496" x1="25.4776" y1="104.652" x2="25.4776" y2="49.1173" gradientUnits="userSpaceOnUse">
<stop stop-color="white" stop-opacity="0"/>
<stop offset="0.2918" stop-color="white" stop-opacity="0.2918"/>
<stop offset="0.6317" stop-color="white" stop-opacity="0.6317"/>
<stop offset="0.8767" stop-color="white" stop-opacity="0.8767"/>
<stop offset="1" stop-color="white"/>
</linearGradient>
<linearGradient id="paint13_linear_1_496" x1="31.4776" y1="104.986" x2="31.4776" y2="52.9224" gradientUnits="userSpaceOnUse">
<stop stop-color="white" stop-opacity="0"/>
<stop offset="0.2918" stop-color="white" stop-opacity="0.2918"/>
<stop offset="0.6317" stop-color="white" stop-opacity="0.6317"/>
<stop offset="0.8767" stop-color="white" stop-opacity="0.8767"/>
<stop offset="1" stop-color="white"/>
</linearGradient>
<linearGradient id="paint14_linear_1_496" x1="37.4776" y1="105.32" x2="37.4776" y2="56.7276" gradientUnits="userSpaceOnUse">
<stop stop-color="white" stop-opacity="0"/>
<stop offset="0.2918" stop-color="white" stop-opacity="0.2918"/>
<stop offset="0.6317" stop-color="white" stop-opacity="0.6317"/>
<stop offset="0.8767" stop-color="white" stop-opacity="0.8767"/>
<stop offset="1" stop-color="white"/>
</linearGradient>
<linearGradient id="paint15_linear_1_496" x1="42.4776" y1="105.655" x2="42.4776" y2="60.5328" gradientUnits="userSpaceOnUse">
<stop stop-color="white" stop-opacity="0"/>
<stop offset="0.2918" stop-color="white" stop-opacity="0.2918"/>
<stop offset="0.6317" stop-color="white" stop-opacity="0.6317"/>
<stop offset="0.8767" stop-color="white" stop-opacity="0.8767"/>
<stop offset="1" stop-color="white"/>
</linearGradient>
<linearGradient id="paint16_linear_1_496" x1="48.9701" y1="105.905" x2="48.9701" y2="63.3867" gradientUnits="userSpaceOnUse">
<stop stop-color="white" stop-opacity="0"/>
<stop offset="0.2918" stop-color="white" stop-opacity="0.2918"/>
<stop offset="0.6317" stop-color="white" stop-opacity="0.6317"/>
<stop offset="0.8767" stop-color="white" stop-opacity="0.8767"/>
<stop offset="1" stop-color="white"/>
</linearGradient>
</defs>
</svg>
